<svg width="214" height="836" viewBox="0 0 214 836" fill="none" xmlns="http://www.w3.org/2000/svg">
<path d="M6.51999 760.104L6.51998 719.784L211 644.616L211 685.512L160.024 704.52L160.024 775.944L211 794.664L211 835.56L6.51999 760.104ZM132.088 711.72L47.704 739.944L132.088 769.32L132.088 711.72ZM213.88 540.108C213.88 551.628 211.288 561.9 206.104 570.924C200.92 579.948 193.816 587.052 184.792 592.236L211 592.236L211 625.932L0.759985 625.932L0.759984 587.34L86.584 587.34C77.56 581.964 70.456 574.956 65.272 566.316C60.088 557.484 57.496 547.212 57.496 535.5C57.496 522.444 61.144 511.02 68.44 501.228C75.544 491.244 85.048 483.468 96.952 477.9C108.856 472.332 121.912 469.548 136.12 469.548C150.712 469.548 163.864 472.62 175.576 478.764C187.288 484.908 196.6 493.356 203.512 504.108C210.424 514.668 213.88 526.668 213.88 540.108ZM181.048 550.764C181.048 542.508 179.032 535.308 175 529.164C170.968 522.828 165.592 517.932 158.872 514.476C151.96 510.828 144.472 509.004 136.408 509.004C128.152 509.004 120.568 510.732 113.656 514.188C106.552 517.452 100.888 522.06 96.664 528.012C92.44 533.964 90.328 540.78 90.328 548.46C90.328 556.908 93.208 564.684 98.968 571.788C104.536 578.7 111.448 583.884 119.704 587.34L155.704 587.34C163.192 584.844 169.336 579.948 174.136 572.652C178.744 565.356 181.048 558.06 181.048 550.764ZM213.88 373.705C213.88 390.217 210.328 404.425 203.224 416.329C195.928 428.041 186.328 437.065 174.424 443.401C162.52 449.737 149.656 452.905 135.832 452.905C121.816 452.905 108.856 449.737 96.952 443.401C85.048 436.873 75.544 427.753 68.44 416.041C61.144 404.137 57.496 390.025 57.496 373.705C57.496 357.385 61.144 343.369 68.44 331.657C75.544 319.753 85.048 310.633 96.952 304.297C108.856 297.961 121.816 294.793 135.832 294.793C149.656 294.793 162.52 297.961 174.424 304.297C186.328 310.633 195.928 319.753 203.224 331.657C210.328 343.369 213.88 357.385 213.88 373.705ZM135.832 413.161C144.664 413.161 152.536 411.433 159.448 407.977C166.168 404.521 171.448 399.817 175.288 393.865C179.128 387.913 181.048 381.193 181.048 373.705C181.048 366.409 179.128 359.785 175.288 353.833C171.256 347.881 165.88 343.177 159.16 339.721C152.248 336.073 144.376 334.249 135.544 334.249C126.904 334.249 119.224 336.073 112.504 339.721C105.592 343.177 100.216 347.881 96.376 353.833C92.344 359.785 90.328 366.409 90.328 373.705C90.328 381.193 92.344 387.913 96.376 393.865C100.216 399.817 105.592 404.521 112.504 407.977C119.224 411.433 127 413.161 135.832 413.161ZM154.552 270.184L60.088 270.184L60.088 231.592L146.2 231.592C169.432 231.592 181.048 223.24 181.048 206.536C181.048 199.048 178.84 191.848 174.424 184.936C169.816 177.832 162.904 172.072 153.688 167.656L60.088 167.656L60.088 129.064L167.8 129.064C172.024 129.064 175 128.392 176.728 127.048C178.264 125.704 179.224 123.304 179.608 119.848L211 119.848C211.768 123.688 212.248 126.952 212.44 129.64C212.632 132.136 212.728 134.44 212.728 136.552C212.728 143.464 211.192 149.128 208.12 153.544C204.856 157.768 200.44 160.264 194.872 161.032L182.776 161.896C193.144 168.616 200.92 177.256 206.104 187.816C211.288 198.376 213.88 209.992 213.88 222.664C213.88 238.216 208.888 250.024 198.904 258.088C188.728 266.152 173.944 270.184 154.552 270.184ZM203.224 0.84373C205.528 6.02773 207.832 12.4597 210.136 20.1397C212.44 27.6277 213.592 35.4037 213.592 43.4677C213.592 50.5717 212.344 57.0997 209.848 63.0517C207.352 69.0037 203.416 73.8037 198.04 77.4517C192.472 80.9077 185.272 82.6357 176.44 82.6357L89.752 82.6357L89.752 102.508L60.088 102.508L60.088 82.6357L11.128 82.6357L11.128 44.0437L60.088 44.0437L60.0879 12.3637L89.752 12.3637L89.752 44.0437L163.48 44.0437C168.664 44.0437 172.408 42.6997 174.712 40.0117C177.016 37.1317 178.168 33.6757 178.168 29.6437C178.168 25.6117 177.496 21.6757 176.152 17.8357C174.808 13.9957 173.656 10.9237 172.696 8.61973L203.224 0.84373Z" fill="#F4F4F4" fill-opacity="0.1"/>
</svg>
