<svg width="135" height="32" viewBox="0 0 135 32" fill="none" xmlns="http://www.w3.org/2000/svg">
<rect width="135" height="32" rx="5" fill="url(#paint0_linear)"/>
<path d="M39.544 15.528V21H37.888V12.48H39.208L43.612 18.096V12.492H45.268V21H43.888L39.544 15.528ZM49.6829 21.12C48.9949 21.12 48.4029 20.972 47.9069 20.676C47.4189 20.372 47.0429 19.972 46.7789 19.476C46.5149 18.98 46.3829 18.444 46.3829 17.868C46.3829 17.284 46.5149 16.744 46.7789 16.248C47.0509 15.752 47.4309 15.356 47.9189 15.06C48.4149 14.756 49.0029 14.604 49.6829 14.604C50.3629 14.604 50.9469 14.756 51.4349 15.06C51.9309 15.356 52.3109 15.752 52.5749 16.248C52.8389 16.744 52.9709 17.284 52.9709 17.868C52.9709 18.444 52.8389 18.98 52.5749 19.476C52.3109 19.972 51.9309 20.372 51.4349 20.676C50.9469 20.972 50.3629 21.12 49.6829 21.12ZM48.0389 17.868C48.0389 18.236 48.1109 18.564 48.2549 18.852C48.3989 19.132 48.5949 19.352 48.8429 19.512C49.0909 19.672 49.3709 19.752 49.6829 19.752C49.9869 19.752 50.2629 19.672 50.5109 19.512C50.7589 19.344 50.9549 19.12 51.0989 18.84C51.2509 18.552 51.3269 18.224 51.3269 17.856C51.3269 17.496 51.2509 17.176 51.0989 16.896C50.9549 16.608 50.7589 16.384 50.5109 16.224C50.2629 16.056 49.9869 15.972 49.6829 15.972C49.3709 15.972 49.0909 16.056 48.8429 16.224C48.5949 16.384 48.3989 16.608 48.2549 16.896C48.1109 17.176 48.0389 17.5 48.0389 17.868ZM57.7305 20.676C57.5145 20.772 57.2465 20.868 56.9265 20.964C56.6145 21.06 56.2905 21.108 55.9545 21.108C55.6585 21.108 55.3865 21.056 55.1385 20.952C54.8905 20.848 54.6905 20.684 54.5385 20.46C54.3945 20.228 54.3225 19.928 54.3225 19.56V15.948H53.4945V14.712H54.3225V12.672H55.9305V14.712H57.2505V15.948H55.9305V19.02C55.9305 19.236 55.9865 19.392 56.0985 19.488C56.2185 19.584 56.3625 19.632 56.5305 19.632C56.6985 19.632 56.8625 19.604 57.0225 19.548C57.1825 19.492 57.3105 19.444 57.4065 19.404L57.7305 20.676ZM58.5679 13.836V12.24H60.1759V13.836H58.5679ZM58.5679 21V14.712H60.1759V21H58.5679ZM62.0105 21V16.272H61.1825V15.048H62.0105V14.664C62.0105 13.888 62.1985 13.272 62.5745 12.816C62.9585 12.352 63.4705 12.12 64.1105 12.12C64.6225 12.12 65.1385 12.244 65.6585 12.492L65.3345 13.704C65.2145 13.64 65.0705 13.588 64.9025 13.548C64.7425 13.5 64.5945 13.476 64.4585 13.476C63.8985 13.476 63.6185 13.852 63.6185 14.604V15.048H65.1545V16.272H63.6185V21H62.0105ZM66.1999 22.224C66.4959 22.304 66.7359 22.344 66.9199 22.344C67.1359 22.344 67.3079 22.252 67.4359 22.068C67.5719 21.892 67.7239 21.536 67.8919 21L65.4079 14.712H67.0759L68.7679 19.356L70.2559 14.712H71.7919L69.1519 22.248C69.0079 22.68 68.7479 23.036 68.3719 23.316C68.0039 23.604 67.5479 23.748 67.0039 23.748C66.7399 23.748 66.4719 23.704 66.1999 23.616V22.224ZM85.0117 21H83.4037V17.472C83.4037 16.976 83.3157 16.612 83.1397 16.38C82.9717 16.14 82.7357 16.02 82.4317 16.02C82.1117 16.02 81.8117 16.144 81.5317 16.392C81.2517 16.632 81.0517 16.948 80.9317 17.34V21H79.3237V17.472C79.3237 16.968 79.2357 16.6 79.0597 16.368C78.8917 16.136 78.6557 16.02 78.3517 16.02C78.0397 16.02 77.7397 16.14 77.4517 16.38C77.1717 16.62 76.9717 16.936 76.8517 17.328V21H75.2437V14.712H76.6957V15.876C76.9277 15.468 77.2437 15.156 77.6437 14.94C78.0517 14.716 78.5157 14.604 79.0357 14.604C79.5557 14.604 79.9597 14.732 80.2477 14.988C80.5437 15.244 80.7317 15.56 80.8117 15.936C81.0597 15.504 81.3837 15.176 81.7837 14.952C82.1837 14.72 82.6317 14.604 83.1277 14.604C83.5197 14.604 83.8357 14.676 84.0757 14.82C84.3237 14.956 84.5157 15.144 84.6517 15.384C84.7877 15.616 84.8797 15.88 84.9277 16.176C84.9837 16.472 85.0117 16.772 85.0117 17.076V21ZM89.3277 21.12C88.6477 21.12 88.0597 20.972 87.5637 20.676C87.0757 20.38 86.6957 19.988 86.4237 19.5C86.1517 19.004 86.0157 18.468 86.0157 17.892C86.0157 17.3 86.1477 16.756 86.4117 16.26C86.6837 15.756 87.0677 15.356 87.5637 15.06C88.0597 14.756 88.6517 14.604 89.3397 14.604C90.0277 14.604 90.6157 14.756 91.1037 15.06C91.5917 15.356 91.9637 15.752 92.2197 16.248C92.4837 16.736 92.6157 17.264 92.6157 17.832C92.6157 18.04 92.6037 18.22 92.5797 18.372H87.7197C87.7597 18.86 87.9397 19.244 88.2597 19.524C88.5877 19.804 88.9637 19.944 89.3877 19.944C89.7077 19.944 90.0077 19.868 90.2877 19.716C90.5757 19.556 90.7717 19.348 90.8757 19.092L92.2557 19.476C92.0237 19.956 91.6517 20.352 91.1397 20.664C90.6277 20.968 90.0237 21.12 89.3277 21.12ZM87.6837 17.352H90.9717C90.9237 16.88 90.7437 16.5 90.4317 16.212C90.1277 15.916 89.7557 15.768 89.3157 15.768C88.8837 15.768 88.5117 15.916 88.1997 16.212C87.8957 16.5 87.7237 16.88 87.6837 17.352ZM93.9073 17.796V12.396H95.5153V17.796H93.9073ZM93.9073 21V19.188H95.5153V21H93.9073Z" fill="#F4F4F4"/>
<defs>
<linearGradient id="paint0_linear" x1="0" y1="0" x2="136.501" y2="8.7411" gradientUnits="userSpaceOnUse">
<stop stop-color="#83D2D7"/>
<stop offset="0.510417" stop-color="#2ADFB4"/>
<stop offset="1" stop-color="#B9FF9B"/>
</linearGradient>
</defs>
</svg>
