<svg width="40" height="40" viewBox="0 0 40 40" fill="none" xmlns="http://www.w3.org/2000/svg">
<rect width="40" height="40" rx="2.89119" fill="#2F2F2F"/>
<path d="M24.5959 10.6628H28.5767C28.8406 10.6628 29.0937 10.7676 29.2804 10.9543C29.467 11.1409 29.5719 11.394 29.5719 11.658V27.5811C29.5719 27.845 29.467 28.0982 29.2804 28.2848C29.0937 28.4714 28.8406 28.5763 28.5767 28.5763H10.6632C10.3992 28.5763 10.1461 28.4714 9.95945 28.2848C9.77282 28.0982 9.66797 27.845 9.66797 27.5811V11.658C9.66797 11.394 9.77282 11.1409 9.95945 10.9543C10.1461 10.7676 10.3992 10.6628 10.6632 10.6628H14.6439V8.67239H16.6343V10.6628H22.6055V8.67239H24.5959V10.6628ZM22.6055 12.6532H16.6343V14.6436H14.6439V12.6532H11.6584V16.634H27.5815V12.6532H24.5959V14.6436H22.6055V12.6532ZM27.5815 18.6243H11.6584V26.5859H27.5815V18.6243Z" fill="url(#paint0_linear)"/>
<defs>
<linearGradient id="paint0_linear" x1="9.64076" y1="8.49516" x2="29.4901" y2="28.7262" gradientUnits="userSpaceOnUse">
<stop stop-color="#83D2D7"/>
<stop offset="0.5" stop-color="#2ADFB4"/>
<stop offset="1" stop-color="#B9FF9B"/>
</linearGradient>
</defs>
</svg>
