<svg width="40" height="40" viewBox="0 0 40 40" fill="none" xmlns="http://www.w3.org/2000/svg">
<rect width="40" height="40" rx="2.89119" fill="#2F2F2F"/>
<path d="M19.6199 18.6982C20.9396 18.6982 22.2053 19.2225 23.1385 20.1556C24.0716 21.0888 24.5959 22.3545 24.5959 23.6742V29.6454H22.6055V23.6742C22.6055 22.9126 22.3146 22.1799 21.7921 21.6258C21.2697 21.0717 20.5553 20.7383 19.7951 20.6936L19.6199 20.6886C18.8584 20.6886 18.1256 20.9795 17.5715 21.502C17.0175 22.0244 16.684 22.7388 16.6393 23.499L16.6343 23.6742V29.6454H14.6439V23.6742C14.6439 22.3545 15.1682 21.0888 16.1014 20.1556C17.0345 19.2225 18.3002 18.6982 19.6199 18.6982ZM13.1512 21.6838C13.4288 21.6838 13.6985 21.7166 13.9573 21.7773C13.7871 22.2839 13.6863 22.8112 13.6577 23.3448L13.6487 23.6742V23.7598C13.5344 23.7188 13.4154 23.6921 13.2945 23.6802L13.1512 23.6742C12.7801 23.6742 12.4223 23.8124 12.1476 24.0619C11.8729 24.3114 11.7009 24.6543 11.6653 25.0237L11.6584 25.167V29.6454H9.66797V25.167C9.66797 24.2432 10.0349 23.3572 10.6882 22.704C11.3414 22.0508 12.2274 21.6838 13.1512 21.6838ZM26.0887 21.6838C27.0125 21.6838 27.8984 22.0508 28.5517 22.704C29.2049 23.3572 29.5719 24.2432 29.5719 25.167V29.6454H27.5815V25.167C27.5815 24.7959 27.4432 24.4381 27.1937 24.1634C26.9442 23.8887 26.6014 23.7168 26.232 23.6811L26.0887 23.6742C25.9145 23.6742 25.7473 23.704 25.5911 23.7588V23.6742C25.5911 23.0114 25.4836 22.3745 25.2836 21.7793C25.5413 21.7166 25.811 21.6838 26.0887 21.6838ZM13.1512 15.7126C13.811 15.7126 14.4438 15.9748 14.9104 16.4413C15.377 16.9079 15.6391 17.5408 15.6391 18.2006C15.6391 18.8605 15.377 19.4933 14.9104 19.9599C14.4438 20.4265 13.811 20.6886 13.1512 20.6886C12.4913 20.6886 11.8585 20.4265 11.3919 19.9599C10.9253 19.4933 10.6632 18.8605 10.6632 18.2006C10.6632 17.5408 10.9253 16.9079 11.3919 16.4413C11.8585 15.9748 12.4913 15.7126 13.1512 15.7126ZM26.0887 15.7126C26.7485 15.7126 27.3814 15.9748 27.848 16.4413C28.3145 16.9079 28.5767 17.5408 28.5767 18.2006C28.5767 18.8605 28.3145 19.4933 27.848 19.9599C27.3814 20.4265 26.7485 20.6886 26.0887 20.6886C25.4288 20.6886 24.796 20.4265 24.3294 19.9599C23.8628 19.4933 23.6007 18.8605 23.6007 18.2006C23.6007 17.5408 23.8628 16.9079 24.3294 16.4413C24.796 15.9748 25.4288 15.7126 26.0887 15.7126ZM13.1512 17.703C13.0192 17.703 12.8926 17.7554 12.7993 17.8488C12.706 17.9421 12.6536 18.0686 12.6536 18.2006C12.6536 18.3326 12.706 18.4591 12.7993 18.5525C12.8926 18.6458 13.0192 18.6982 13.1512 18.6982C13.2831 18.6982 13.4097 18.6458 13.503 18.5525C13.5963 18.4591 13.6487 18.3326 13.6487 18.2006C13.6487 18.0686 13.5963 17.9421 13.503 17.8488C13.4097 17.7554 13.2831 17.703 13.1512 17.703ZM26.0887 17.703C25.9567 17.703 25.8301 17.7554 25.7368 17.8488C25.6435 17.9421 25.5911 18.0686 25.5911 18.2006C25.5911 18.3326 25.6435 18.4591 25.7368 18.5525C25.8301 18.6458 25.9567 18.6982 26.0887 18.6982C26.2207 18.6982 26.3472 18.6458 26.4405 18.5525C26.5339 18.4591 26.5863 18.3326 26.5863 18.2006C26.5863 18.0686 26.5339 17.9421 26.4405 17.8488C26.3472 17.7554 26.2207 17.703 26.0887 17.703ZM19.6199 9.74146C20.6757 9.74146 21.6882 10.1609 22.4348 10.9074C23.1813 11.6539 23.6007 12.6665 23.6007 13.7222C23.6007 14.778 23.1813 15.7905 22.4348 16.5371C21.6882 17.2836 20.6757 17.703 19.6199 17.703C18.5641 17.703 17.5516 17.2836 16.8051 16.5371C16.0585 15.7905 15.6391 14.778 15.6391 13.7222C15.6391 12.6665 16.0585 11.6539 16.8051 10.9074C17.5516 10.1609 18.5641 9.74146 19.6199 9.74146ZM19.6199 11.7318C19.092 11.7318 18.5858 11.9415 18.2125 12.3148C17.8392 12.6881 17.6295 13.1944 17.6295 13.7222C17.6295 14.2501 17.8392 14.7564 18.2125 15.1297C18.5858 15.5029 19.092 15.7126 19.6199 15.7126C20.1478 15.7126 20.6541 15.5029 21.0273 15.1297C21.4006 14.7564 21.6103 14.2501 21.6103 13.7222C21.6103 13.1944 21.4006 12.6881 21.0273 12.3148C20.6541 11.9415 20.1478 11.7318 19.6199 11.7318Z" fill="url(#paint0_linear)"/>
<defs>
<linearGradient id="paint0_linear" x1="9.74979" y1="9.7142" x2="29.5992" y2="29.5636" gradientUnits="userSpaceOnUse">
<stop stop-color="#83D2D7"/>
<stop offset="0.520833" stop-color="#2ADFB4"/>
<stop offset="1" stop-color="#B9FF9B"/>
</linearGradient>
</defs>
</svg>
