<svg width="40" height="40" viewBox="0 0 40 40" fill="none" xmlns="http://www.w3.org/2000/svg">
<rect width="40" height="40" rx="2.89119" fill="#2F2F2F"/>
<path d="M13.8826 14.7863C12.6138 16.1032 11.837 17.8168 11.6828 19.639C11.5286 21.4612 12.0064 23.281 13.036 24.7924C14.0655 26.3038 15.5839 27.4147 17.3361 27.9384C19.0882 28.4621 20.9672 28.3666 22.6573 27.6681C22.7717 26.9217 22.5209 26.2051 22.4184 25.9544C22.1895 25.397 21.4352 24.4446 20.1762 23.124C19.8399 22.7707 19.8618 22.499 19.9822 21.6939L19.9951 21.6034C20.0767 21.052 20.214 20.7256 22.0701 20.431C23.0135 20.2817 23.2613 20.6579 23.6047 21.1804L23.7201 21.3516C24.0465 21.8293 24.2884 21.9387 24.6536 22.1039C24.8178 22.1786 25.0218 22.2731 25.2955 22.4274C25.9444 22.7986 25.9444 23.2176 25.9444 24.1351V24.2396C25.9444 24.6288 25.9066 24.9711 25.8469 25.2687C26.6105 24.3102 27.1427 23.1884 27.4019 21.9907C27.6612 20.7929 27.6405 19.5515 27.3415 18.363C27.0424 17.1746 26.4732 16.0712 25.678 15.1387C24.8828 14.2063 23.8831 13.4699 22.7568 12.987C22.2064 13.3582 21.4511 13.8846 21.1873 14.2459C21.053 14.43 20.8619 15.3724 20.2419 15.4501C20.0807 15.47 19.8627 15.456 19.6319 15.4411C19.0128 15.4013 18.1669 15.3466 17.8962 16.082C17.7241 16.5478 17.6942 17.8137 18.2505 18.4705C18.3401 18.575 18.357 18.769 18.2963 18.987C18.2167 19.2726 18.0565 19.4468 18.0057 19.4826C17.9102 19.4269 17.7191 19.2049 17.5887 19.0547C17.2772 18.6914 16.8871 18.2386 16.3835 18.0993C16.2004 18.0485 15.9994 18.0067 15.8033 17.9649C15.257 17.8505 14.639 17.7201 14.4947 17.4136C14.3892 17.1887 14.3902 16.8792 14.3902 16.5527C14.3902 16.1378 14.3902 15.669 14.1871 15.2142C14.1166 15.0519 14.0128 14.9061 13.8826 14.7863ZM19.6199 30.2586C14.1235 30.2586 9.66797 25.8031 9.66797 20.3066C9.66797 14.8102 14.1235 10.3547 19.6199 10.3547C25.1164 10.3547 29.5719 14.8102 29.5719 20.3066C29.5719 25.8031 25.1164 30.2586 19.6199 30.2586Z" fill="url(#paint0_linear)"/>
<defs>
<linearGradient id="paint0_linear" x1="9.64076" y1="10.4365" x2="29.4901" y2="30.2858" gradientUnits="userSpaceOnUse">
<stop stop-color="#83D2D7"/>
<stop offset="0.515625" stop-color="#2ADFB4"/>
<stop offset="1" stop-color="#B9FF9B"/>
</linearGradient>
</defs>
</svg>
