<svg width="40" height="40" viewBox="0 0 40 40" fill="none" xmlns="http://www.w3.org/2000/svg">
<rect width="40" height="40" rx="2.89119" fill="#2F2F2F"/>
<path d="M9.66799 13.6483C9.66799 13.099 10.1208 12.6531 10.6552 12.6531H28.5847C29.13 12.6531 29.5719 13.096 29.5719 13.6483V27.581C29.5719 28.1304 29.1191 28.5762 28.5847 28.5762H10.6552C10.525 28.576 10.3961 28.55 10.2759 28.4998C10.1557 28.4496 10.0466 28.3762 9.9549 28.2837C9.86318 28.1912 9.79061 28.0816 9.74138 27.961C9.69214 27.8404 9.6672 27.7113 9.66799 27.581V13.6483ZM11.6584 14.6435V26.5859H27.5815V14.6435H11.6584ZM21.6103 23.6003C22.4022 23.6003 23.1615 23.2857 23.7215 22.7258C24.2814 22.1659 24.5959 21.4065 24.5959 20.6147C24.5959 19.8229 24.2814 19.0635 23.7215 18.5036C23.1615 17.9437 22.4022 17.6291 21.6103 17.6291C20.8185 17.6291 20.0591 17.9437 19.4992 18.5036C18.9393 19.0635 18.6247 19.8229 18.6247 20.6147C18.6247 21.4065 18.9393 22.1659 19.4992 22.7258C20.0591 23.2857 20.8185 23.6003 21.6103 23.6003ZM21.6103 25.5907C20.2906 25.5907 19.025 25.0664 18.0918 24.1332C17.1586 23.2001 16.6344 21.9344 16.6344 20.6147C16.6344 19.295 17.1586 18.0293 18.0918 17.0961C19.025 16.163 20.2906 15.6387 21.6103 15.6387C22.93 15.6387 24.1957 16.163 25.1289 17.0961C26.062 18.0293 26.5863 19.295 26.5863 20.6147C26.5863 21.9344 26.062 23.2001 25.1289 24.1332C24.1957 25.0664 22.93 25.5907 21.6103 25.5907ZM11.6584 9.66754H17.6295V11.6579H11.6584V9.66754Z" fill="url(#paint0_linear)"/>
<defs>
<linearGradient id="paint0_linear" x1="9.66797" y1="9.66754" x2="29.5719" y2="28.5762" gradientUnits="userSpaceOnUse">
<stop stop-color="#74D5D1"/>
<stop offset="0.494791" stop-color="#2ADFB4"/>
<stop offset="1" stop-color="#B0FD9D"/>
</linearGradient>
</defs>
</svg>
