<svg width="40" height="40" viewBox="0 0 40 40" fill="none" xmlns="http://www.w3.org/2000/svg">
<rect width="40" height="40" rx="2.89119" fill="#2F2F2F"/>
<g clip-path="url(#clip0)">
<path d="M26.5859 27.5811H12.6532V28.5763C12.6532 28.8403 12.5484 29.0934 12.3617 29.28C12.1751 29.4667 11.922 29.5715 11.658 29.5715H10.6628C10.3989 29.5715 10.1458 29.4667 9.95912 29.28C9.77249 29.0934 9.66764 28.8403 9.66764 28.5763V21.1124L8.43061 20.8039C8.2154 20.7499 8.02438 20.6257 7.88788 20.4508C7.75139 20.2759 7.67725 20.0604 7.67725 19.8385V19.122C7.67725 18.99 7.72967 18.8634 7.82299 18.7701C7.91631 18.6768 8.04287 18.6244 8.17484 18.6244H9.66764L12.1357 12.8642C12.2893 12.5059 12.5447 12.2006 12.8702 11.9862C13.1958 11.7718 13.5771 11.6577 13.9669 11.658H25.2723C25.6618 11.6581 26.0426 11.7724 26.3678 11.9868C26.6929 12.2012 26.948 12.5062 27.1015 12.8642L29.5715 18.6244H31.0643C31.1963 18.6244 31.3229 18.6768 31.4162 18.7701C31.5095 18.8634 31.5619 18.99 31.5619 19.122V19.8385C31.5619 20.0604 31.4878 20.2759 31.3513 20.4508C31.2148 20.6257 31.0238 20.7499 30.8086 20.8039L29.5715 21.1124V28.5763C29.5715 28.8403 29.4667 29.0934 29.28 29.28C29.0934 29.4667 28.8403 29.5715 28.5763 29.5715H27.5811C27.3172 29.5715 27.0641 29.4667 26.8774 29.28C26.6908 29.0934 26.5859 28.8403 26.5859 28.5763V27.5811ZM27.5811 25.5907V20.6148H11.658V25.5907H27.5811ZM13.1279 18.6244H26.1112C26.2738 18.6243 26.4338 18.5844 26.5774 18.5081C26.7209 18.4319 26.8436 18.3216 26.9348 18.187C27.0259 18.0524 27.0826 17.8976 27.1001 17.7359C27.1175 17.5743 27.0951 17.4109 27.0348 17.26L25.5908 13.6484H13.6484L12.2044 17.26C12.1441 17.4109 12.1217 17.5743 12.1391 17.7359C12.1565 17.8976 12.2133 18.0524 12.3044 18.187C12.3955 18.3216 12.5182 18.4319 12.6618 18.5081C12.8053 18.5844 12.9654 18.6243 13.1279 18.6244ZM12.6532 21.61C14.9591 21.61 16.5136 22.3613 17.3167 23.8631C17.3573 23.9389 17.3776 24.024 17.3755 24.11C17.3734 24.1959 17.3491 24.2799 17.3049 24.3537C17.2607 24.4275 17.1981 24.4886 17.1232 24.5309C17.0484 24.5733 16.9638 24.5956 16.8778 24.5956H13.6484C13.3845 24.5956 13.1313 24.4907 12.9447 24.3041C12.7581 24.1174 12.6532 23.8643 12.6532 23.6004V21.61ZM26.5859 21.61V23.6004C26.5859 23.8643 26.4811 24.1174 26.2945 24.3041C26.1078 24.4907 25.8547 24.5956 25.5908 24.5956H22.3613C22.2754 24.5954 22.191 24.573 22.1163 24.5306C22.0416 24.4881 21.9791 24.427 21.935 24.3533C21.891 24.2795 21.8667 24.1956 21.8647 24.1097C21.8627 24.0238 21.8829 23.9388 21.9235 23.8631C22.7246 22.3603 24.2791 21.61 26.5859 21.61Z" fill="url(#paint0_linear)"/>
</g>
<defs>
<linearGradient id="paint0_linear" x1="7.67725" y1="11.658" x2="31.5619" y2="29.5715" gradientUnits="userSpaceOnUse">
<stop stop-color="#76D4D2"/>
<stop offset="0.520833" stop-color="#2ADFB4"/>
<stop offset="1" stop-color="#B4FE9C"/>
</linearGradient>
<clipPath id="clip0">
<rect width="23.8847" height="23.8847" fill="white" transform="translate(7.67725 7.67719)"/>
</clipPath>
</defs>
</svg>
